<svg width="120" height="34" viewBox="0 0 120 34" fill="none" xmlns="http://www.w3.org/2000/svg">
<circle cx="17" cy="17" r="17" fill="#0D0D0D"/>
<path d="M66.4946 22.6655C66.6263 22.6655 66.758 22.6924 66.8896 22.7461C67.0213 22.7891 67.1475 22.8697 67.2682 22.9879L69.4735 25.2606C68.508 26.4963 67.2956 27.4312 65.8363 28.0651C64.388 28.6884 62.671 29 60.685 29C58.8637 29 57.2289 28.6991 55.7806 28.0974C54.3433 27.4849 53.1199 26.6467 52.1105 25.5829C51.1121 24.5084 50.3441 23.2404 49.8064 21.779C49.2688 20.3069 49 18.7112 49 16.9919C49 15.2404 49.3072 13.634 49.9216 12.1726C50.5361 10.7005 51.3919 9.43251 52.4891 8.3687C53.5972 7.3049 54.9193 6.4775 56.4554 5.8865C57.9914 5.2955 59.6866 5 61.5408 5C62.4405 5 63.2854 5.08059 64.0754 5.24177C64.8763 5.39221 65.6224 5.60712 66.3136 5.8865C67.0048 6.15514 67.6412 6.48287 68.2227 6.86971C68.8042 7.2458 69.3199 7.66488 69.7698 8.12693L67.8936 10.593C67.7729 10.7435 67.6302 10.8831 67.4657 11.0121C67.3011 11.1303 67.0707 11.1894 66.7744 11.1894C66.5769 11.1894 66.3904 11.1464 66.2149 11.0604C66.0393 10.9745 65.8528 10.8724 65.6553 10.7542C65.4578 10.6253 65.2384 10.4909 64.997 10.3512C64.7666 10.2008 64.4868 10.0665 64.1576 9.94829C63.8395 9.81934 63.4609 9.71189 63.0221 9.62592C62.5941 9.53996 62.0894 9.49698 61.5079 9.49698C60.4985 9.49698 59.5769 9.67428 58.743 10.0289C57.9092 10.3727 57.1905 10.8724 56.587 11.5279C55.9946 12.1726 55.5283 12.957 55.1881 13.8811C54.859 14.8052 54.6944 15.8422 54.6944 16.9919C54.6944 18.1954 54.859 19.2646 55.1881 20.1995C55.5283 21.1343 55.9836 21.9241 56.5541 22.5688C57.1356 23.2028 57.8104 23.6864 58.5784 24.0195C59.3465 24.3526 60.1694 24.5191 61.0471 24.5191C61.5518 24.5191 62.0126 24.4977 62.4296 24.4547C62.8465 24.4009 63.2305 24.315 63.5816 24.1968C63.9437 24.0786 64.2838 23.9281 64.602 23.7455C64.9312 23.552 65.2603 23.3156 65.5895 23.0363C65.7211 22.9288 65.8638 22.8428 66.0174 22.7784C66.171 22.7032 66.3301 22.6655 66.4946 22.6655Z" fill="black"/>
<path d="M98.9734 16.9919C98.9734 18.6897 98.6716 20.2693 98.0682 21.7307C97.4757 23.1921 96.6363 24.4654 95.5501 25.5507C94.4639 26.6253 93.1528 27.4688 91.6167 28.0813C90.0916 28.6938 88.3965 29 86.5313 29C84.666 29 82.9654 28.6938 81.4293 28.0813C79.8933 27.4688 78.5766 26.6253 77.4795 25.5507C76.3932 24.4654 75.5484 23.1921 74.945 21.7307C74.3525 20.2693 74.0562 18.6897 74.0562 16.9919C74.0562 15.2942 74.3525 13.7146 74.945 12.2532C75.5484 10.7918 76.3932 9.52384 77.4795 8.44929C78.5766 7.37475 79.8933 6.53123 81.4293 5.91874C82.9654 5.30625 84.666 5 86.5313 5C88.3965 5 90.0916 5.31162 91.6167 5.93486C93.1528 6.54735 94.4639 7.39087 95.5501 8.46541C96.6363 9.53996 97.4757 10.8079 98.0682 12.2693C98.6716 13.7307 98.9734 15.3049 98.9734 16.9919ZM93.279 16.9919C93.279 15.8314 93.1253 14.7891 92.8181 13.865C92.5109 12.9302 92.0666 12.1404 91.4851 11.4956C90.9145 10.8509 90.2123 10.3566 89.3785 10.0128C88.5446 9.66891 87.5955 9.49698 86.5313 9.49698C85.456 9.49698 84.496 9.66891 83.6511 10.0128C82.8173 10.3566 82.1096 10.8509 81.5281 11.4956C80.9575 12.1404 80.5187 12.9302 80.2115 13.865C79.9042 14.7891 79.7506 15.8314 79.7506 16.9919C79.7506 18.1632 79.9042 19.2163 80.2115 20.1511C80.5187 21.0752 80.9575 21.8596 81.5281 22.5044C82.1096 23.1491 82.8173 23.6434 83.6511 23.9872C84.496 24.3203 85.456 24.4869 86.5313 24.4869C87.5955 24.4869 88.5446 24.3203 89.3785 23.9872C90.2123 23.6434 90.9145 23.1491 91.4851 22.5044C92.0666 21.8596 92.5109 21.0752 92.8181 20.1511C93.1253 19.2163 93.279 18.1632 93.279 16.9919Z" fill="black"/>
<path d="M118.288 10.0289C118.124 10.2868 117.948 10.4802 117.762 10.6091C117.586 10.7381 117.356 10.8026 117.071 10.8026C116.818 10.8026 116.544 10.7273 116.248 10.5769C115.962 10.4157 115.633 10.2384 115.26 10.045C114.898 9.85158 114.481 9.67965 114.009 9.52921C113.538 9.36803 113 9.28744 112.396 9.28744C111.354 9.28744 110.575 9.50772 110.059 9.94829C109.555 10.3781 109.302 10.9637 109.302 11.7052C109.302 12.178 109.456 12.5702 109.763 12.8818C110.07 13.1934 110.471 13.4621 110.965 13.6877C111.469 13.9134 112.04 14.1229 112.676 14.3163C113.324 14.499 113.982 14.7085 114.651 14.9449C115.32 15.1706 115.973 15.4392 116.61 15.7508C117.257 16.0625 117.828 16.46 118.321 16.9436C118.826 17.4271 119.232 18.0181 119.539 18.7166C119.846 19.4043 120 20.2371 120 21.2149C120 22.3002 119.808 23.3156 119.424 24.2612C119.04 25.2069 118.48 26.0343 117.745 26.7435C117.021 27.4419 116.121 27.9953 115.046 28.4036C113.982 28.8012 112.77 29 111.409 29C110.663 29 109.9 28.9248 109.121 28.7743C108.353 28.6239 107.607 28.4144 106.883 28.1457C106.159 27.8664 105.479 27.5386 104.842 27.1625C104.206 26.7864 103.652 26.3674 103.18 25.9053L104.826 23.3586C104.947 23.1652 105.117 23.0094 105.336 22.8912C105.556 22.773 105.791 22.7139 106.044 22.7139C106.373 22.7139 106.702 22.816 107.031 23.0201C107.371 23.2243 107.75 23.45 108.167 23.6971C108.595 23.9443 109.083 24.1699 109.632 24.3741C110.18 24.5782 110.828 24.6803 111.574 24.6803C112.583 24.6803 113.368 24.4654 113.927 24.0356C114.487 23.595 114.766 22.9019 114.766 21.9563C114.766 21.4083 114.613 20.9624 114.306 20.6185C113.998 20.2747 113.592 19.9899 113.088 19.7643C112.594 19.5386 112.029 19.3398 111.393 19.1679C110.756 18.996 110.103 18.8079 109.434 18.6038C108.765 18.3889 108.112 18.131 107.476 17.8301C106.839 17.5185 106.269 17.1155 105.764 16.6212C105.27 16.1162 104.87 15.4929 104.563 14.7515C104.255 13.9993 104.102 13.0752 104.102 11.9792C104.102 11.0981 104.283 10.2384 104.645 9.40027C105.007 8.56212 105.539 7.81531 106.241 7.15984C106.943 6.50436 107.805 5.98321 108.825 5.59637C109.846 5.19879 111.014 5 112.331 5C113.066 5 113.779 5.0591 114.47 5.1773C115.172 5.28476 115.836 5.45131 116.462 5.67696C117.087 5.89187 117.668 6.15514 118.206 6.46676C118.755 6.76763 119.243 7.11148 119.671 7.49832L118.288 10.0289Z" fill="black"/>
</svg>
